Coordinates
version=1
nRows=5
nColumns=46
inDegrees=yes

Units are S.I. units (second, meters, Newtons, ...)
Angles are in degrees.

endheader
time	pelvis_tilt	pelvis_list	pelvis_rotation	pelvis_tx	pelvis_ty	pelvis_tz	bb_angle	bb_tx	bb_ty	bb_tz	hip_flexion_r	hip_adduction_r	hip_rotation_r	knee_angle_r	knee_angle_r_beta	ankle_angle_r	subtalar_angle_r	mtp_angle_r	crank_angle_r	hip_flexion_l	hip_adduction_l	hip_rotation_l	knee_angle_l	knee_angle_l_beta	ankle_angle_l	subtalar_angle_l	mtp_angle_l	crank_angle_l	lumbar_extension	lumbar_bending	lumbar_rotation	arm_flex_r	arm_add_r	arm_rot_r	elbow_flex_r	pro_sup_r	wrist_flex_r	wrist_dev_r	arm_flex_l	arm_add_l	arm_rot_l	elbow_flex_l	pro_sup_l	wrist_flex_l	wrist_dev_l
      7.50000000	     33.09485795	     12.16257736	     23.46871940	      0.28567980	      1.07791544	     -0.27746509	      0.00000000	      0.50000000	      0.00000000	      0.25000000	    -29.07463631	    -10.93313377	    -39.89635405	     49.03513764	      0.85582460	      2.68663652	      0.17032769	      0.00000000	      0.00000000	     39.21374665	     10.43768024	     18.53702009	    131.23641338	      2.29050751	      4.22072858	      8.19756337	      0.00000000	      0.00000000	    -89.94990598	     17.53794709	    -12.83783734	     81.86545969	     -7.55811169	     84.55276237	     17.01931009	     69.27482421	      0.00000000	      0.00000000	     86.91102130	    -21.15073374	     86.16664453	     33.42986816	     71.43577622	      0.00000000	      0.00000000
      7.50500000	     33.03009834	     12.33141104	     23.46671688	      0.28605180	      1.07783343	     -0.27730075	      0.00000000	      0.50000000	      0.00000000	      0.25000000	    -29.30331611	    -11.11078572	    -39.89451032	     49.91319084	      0.87114952	      2.30309039	     -0.31448095	      0.00000000	      0.00000000	     39.86321285	     10.91799565	     18.12511797	    130.84375467	      2.28365432	      4.58610270	      8.27013605	      0.00000000	      0.00000000	    -89.94908301	     17.44383200	    -12.92820788	     81.59231060	     -7.53577126	     83.77310807	     17.10354067	     67.63882444	      0.00000000	      0.00000000	     86.82132387	    -20.94795167	     86.37800517	     33.26768452	     69.76894861	      0.00000000	      0.00000000
      7.51000000	     32.90781638	     12.68198557	     23.47226438	      0.28615215	      1.07789103	     -0.27728650	      0.00000000	      0.50000000	      0.00000000	      0.25000000	    -29.43330747	    -11.58576259	    -39.89145245	     51.09366165	      0.89175262	      1.98626452	     -0.72401674	      0.00000000	      0.00000000	     40.36372360	     11.62632786	     17.56944741	    130.28148709	      2.27384090	      4.94229061	      8.35461936	      0.00000000	      0.00000000	    -89.94814850	     17.36883399	    -13.09680880	     82.12556344	     -7.81998270	     84.37353299	     16.78718709	     73.08870850	      0.00000000	      0.00000000	     87.00514405	    -20.74739312	     85.91741901	     33.12986315	     73.47389322	      0.00000000	      0.00000000
      7.51500000	     32.80573962	     13.03151027	     23.60040925	      0.28613248	      1.07809810	     -0.27740201	      0.00000000	      0.50000000	      0.00000000	      0.25000000	    -29.53252958	    -11.98123520	    -39.88752240	     52.34477293	      0.91358863	      1.49533591	     -1.49859918	      0.00000000	      0.00000000	     40.71639100	     12.41168182	     17.12427314	    129.57577941	      2.26152398	      5.21885033	      8.34783598	      0.00000000	      0.00000000	    -89.94725183	     17.41922068	    -13.49165519	     81.76626704	     -7.50906059	     83.34805445	     16.58138390	     71.06253870	      0.00000000	      0.00000000	     86.97380873	    -20.67111124	     86.16022922	     32.89451617	     71.58005288	      0.00000000	      0.00000000
      7.52000000	     32.66942743	     13.55221010	     23.71066283	      0.28591720	      1.07844482	     -0.27757819	      0.00000000	      0.50000000	      0.00000000	      0.25000000	    -29.58248909	    -12.65543902	    -39.88474461	     53.83768263	      0.93964482	      1.11439975	     -2.04119733	      0.00000000	      0.00000000	     40.90354017	     13.34916699	     16.48312644	    128.69416428	      2.24613689	      5.42763398	      7.92451015	      0.00000000	      0.00000000	    -89.94616080	     17.46162161	    -13.91443958	     81.70325699	     -7.48430443	     83.46584496	     16.48413928	     69.73294568	      0.00000000	      0.00000000	     86.95964212	    -20.55501086	     86.26603243	     32.87936333	     70.23808080	      0.00000000	      0.00000000
